<?xml version="1.0" standalone="no"?>
<!DOCTYPE svg PUBLIC "-//W3C//DTD SVG 1.1//EN" "http://www.w3.org/Graphics/SVG/1.1/DTD/svg11.dtd" >
<svg xmlns="http://www.w3.org/2000/svg">
<metadata></metadata>
<defs>
<font id="urw_imperial_tbold" horiz-adv-x="1159" >
<font-face units-per-em="2048" ascent="1638" descent="-410" />
<missing-glyph horiz-adv-x="512" />
<glyph unicode="&#xfb01;" horiz-adv-x="1138" d="M0 813v80h158q4 268 136 415.5t384 161.5v-219q-55 37 -88 50.5t-74 13.5q-86 0 -138 -57.5t-52 -149.5q0 -102 65 -184q10 -10 11 -15.5t4 -15.5h206v-80h-200v-813h-254v813h-158zM719 1274q0 66 43 103.5t115 37.5t113.5 -38t41.5 -105q0 -61 -41 -98t-112 -37 q-74 0 -117 36.5t-43 100.5zM748 0v893h253v-893h-253z" />
<glyph unicode="&#xfb02;" horiz-adv-x="1138" d="M0 813v80h158q4 268 138 416.5t386 160.5v-219q-53 37 -88 50.5t-76 13.5q-86 0 -139 -57.5t-53 -151.5q0 -100 67 -182q8 -10 9 -15.5t4 -15.5h206v-80h-200v-813h-254v813h-158zM748 0v1448h253v-1448h-253z" />
<glyph horiz-adv-x="2048" />
<glyph horiz-adv-x="2048" />
<glyph unicode="&#xd;" horiz-adv-x="512" />
<glyph unicode=" "  horiz-adv-x="512" />
<glyph unicode="&#x09;" horiz-adv-x="512" />
<glyph unicode="&#xa0;" horiz-adv-x="512" />
<glyph unicode="!" horiz-adv-x="675" d="M176 135q0 72 43 114t115 42q70 0 112.5 -44t42.5 -116q0 -68 -43 -111t-112 -43q-72 0 -115 43t-43 115zM184 1366h303l-102 -983h-100z" />
<glyph unicode="&#x22;" horiz-adv-x="724" d="M47 1448h272l-90 -535h-92zM408 1448h272l-90 -535h-92z" />
<glyph unicode="#" horiz-adv-x="1150" d="M74 498v77h229l35 250h-211v80h221l66 463h166l-64 -463h197l67 463h160l-63 -463h206v-80h-217l-35 -250h201v-77h-213l-69 -498h-162l67 498h-196l-70 -498h-166l68 498h-217zM469 575h199l34 250h-198z" />
<glyph unicode="$" horiz-adv-x="1263" d="M106 403v7h267q2 -82 13 -139.5t37 -95.5t66.5 -60.5t100.5 -34.5v495l-96 37q-57 20 -96.5 38t-69 33t-51 31.5t-46.5 39.5q-49 45 -74.5 104.5t-25.5 126.5q0 80 32 145.5t91 114.5t144 78t192 35v174h82v-174q262 -10 372 -148q18 -23 34 -53.5t27 -61t17 -60t4 -50.5 v-2q0 -2 -1 -2t-1 -2h-260q-4 74 -14 126t-32.5 87t-58.5 55.5t-87 32.5v-453l92 -36q76 -29 121 -47.5t73.5 -34t47 -30.5t43.5 -38q102 -96 102 -246q0 -117 -62.5 -210t-173.5 -138q-45 -16 -106 -28.5t-137 -16.5v-164h-82v164q-279 8 -393 152q-41 51 -66 119.5 t-25 129.5zM385 1075q0 -76 47 -127t158 -92v428q-96 -10 -150.5 -65.5t-54.5 -143.5zM672 78q111 10 169 65.5t58 149.5q0 90 -53 149.5t-174 104.5v-469z" />
<glyph unicode="%" horiz-adv-x="1611" d="M51 1028q0 166 83 256t237 90q158 0 239.5 -91t81.5 -269q0 -160 -84 -250t-237 -90q-154 0 -237 92t-83 262zM246 1014q0 -145 29.5 -211t95.5 -66q72 0 100.5 67.5t28.5 237.5q0 143 -29.5 207t-97.5 64q-72 0 -99.5 -66.5t-27.5 -232.5zM367 -12l786 1435l90 -49 l-786 -1431zM918 344q0 168 83.5 258t239.5 90t238 -92t82 -266q0 -162 -84 -252t-238 -90q-76 0 -142.5 27.5t-105.5 74.5q-35 41 -54 108.5t-19 141.5zM1112 332q0 -145 31 -211t96 -66q72 0 100.5 64.5t28.5 222.5q0 156 -29.5 222.5t-99.5 66.5q-72 0 -99.5 -66.5 t-27.5 -232.5z" />
<glyph unicode="&#x26;" horiz-adv-x="1517" d="M88 354q0 123 80 210t264 169q-53 55 -89 99.5t-58.5 84t-31.5 78.5t-9 80q0 72 30.5 131.5t86 101.5t133 64.5t174.5 22.5q174 0 275 -79t101 -214q0 -55 -16 -99.5t-53 -82t-97.5 -71.5t-146.5 -69l408 -413q47 88 68.5 177t23.5 195h98q-2 -59 -9 -111.5t-22.5 -104.5 t-40 -105t-57.5 -115l311 -303h-356l-125 119q-98 -80 -193.5 -113t-226.5 -33q-117 0 -212 28t-164.5 78t-107.5 120.5t-38 154.5zM348 389q0 -74 23.5 -135t66.5 -105.5t102.5 -69t133.5 -24.5q168 0 295 127l-473 477q-78 -47 -113 -110.5t-35 -159.5zM500 1143 q0 -35 7 -65.5t25.5 -64.5t50.5 -74t81 -93q55 29 82.5 48t50.5 46q31 35 48 85t17 101q0 92 -49 144.5t-131 52.5q-86 0 -134 -48t-48 -132z" />
<glyph unicode="'" horiz-adv-x="368" d="M47 1448h277l-91 -535h-96z" />
<glyph unicode="(" horiz-adv-x="710" d="M94 442q0 168 28 312.5t85 268.5t146 231.5t212 205.5h90q-78 -82 -133 -181t-91 -223t-53.5 -275.5t-17.5 -338.5q0 -186 17.5 -337.5t53.5 -275.5t91.5 -223.5t132.5 -180.5h-90q-123 96 -212 203.5t-146 232.5t-85 268t-28 313z" />
<glyph unicode=")" horiz-adv-x="710" d="M55 -575q78 82 133.5 181t91 223t53 275.5t17.5 337.5t-17.5 339t-53 277t-91 223t-133.5 179h90q111 -86 193 -181t143 -212q72 -131 103.5 -280.5t31.5 -344.5q0 -170 -27.5 -313t-85 -267t-146.5 -231.5t-212 -205.5h-90z" />
<glyph unicode="*" horiz-adv-x="942" d="M86 1104l55 170l293 -150l-53 324h178l-51 -324l291 150l55 -170l-324 -51l232 -232l-144 -104l-147 293l-149 -293l-144 104l234 232z" />
<glyph unicode="+" d="M90 604v162h408v428h161v-428h408v-162h-408v-430h-161v430h-408z" />
<glyph unicode="," horiz-adv-x="524" d="M43 -293l113 551h293l-306 -551h-100z" />
<glyph unicode="-" horiz-adv-x="643" d="M82 403v162h481v-162h-481z" />
<glyph unicode="." horiz-adv-x="518" d="M96 137q0 72 44 115t116 43t115 -45t43 -117q0 -68 -44 -112t-114 -44q-72 0 -116 44.5t-44 115.5z" />
<glyph unicode="/" horiz-adv-x="720" d="M-182 -567l803 2027h124l-800 -2027h-127z" />
<glyph unicode="0" d="M82 686q0 338 129 516t371 178t369.5 -181t127.5 -525q0 -330 -130 -509t-369 -179q-240 0 -369 181t-129 519zM369 676q0 -164 12 -278.5t37.5 -187.5t65.5 -106.5t98 -33.5q113 0 163 140t50 464q0 168 -11.5 286.5t-37 194.5t-66.5 109.5t-98 33.5q-59 0 -99.5 -33.5 t-66 -107.5t-36.5 -192.5t-11 -288.5z" />
<glyph unicode="1" d="M162 1141l475 233h131v-1374h-270v1210l-324 -166z" />
<glyph unicode="2" d="M86 0q-2 92 15.5 167t59.5 142.5t111.5 134t173.5 140.5q63 45 105.5 77.5t71 60.5t47 54.5t35.5 61.5q45 84 45 209q0 252 -177 251q-127 0 -167 -133q-10 -33 -13.5 -77t-3.5 -125h-276q-2 203 121.5 310t357.5 107q211 0 325.5 -96t114.5 -276q0 -66 -19.5 -121.5 t-63.5 -104.5t-114.5 -96t-175.5 -96q-182 -86 -269 -173t-105 -202h764v-215h-963z" />
<glyph unicode="3" d="M86 369v12h279q0 -143 28 -203q47 -109 172 -108q94 0 144 61q29 35 45 94.5t16 120.5q0 98 -34 175t-89 106q-41 20 -85 28.5t-122 8.5v86q143 4 226.5 90t83.5 233q0 104 -45.5 163.5t-126.5 59.5q-102 0 -146.5 -69.5t-44.5 -231.5h-274q4 186 126.5 285.5t344.5 99.5 q209 0 325.5 -91t116.5 -251q0 -291 -393 -329q49 -2 88 -7.5t71.5 -13.5t61.5 -20.5t57 -30.5q66 -39 103 -110.5t37 -159.5q0 -180 -128 -280.5t-358 -100.5q-92 0 -169 16t-132 49q-43 25 -76.5 59.5t-57.5 77.5t-36 89.5t-8 91.5z" />
<glyph unicode="4" d="M43 334v168l688 882h176v-880h195v-170h-195v-334h-266v334h-598zM150 504h495v645z" />
<glyph unicode="5" d="M86 371h276q0 -301 195 -301q201 0 201 333q0 352 -271 353q-164 0 -233 -123h-102l49 733h772v-207h-697l-28 -428q133 127 348 127q207 0 325.5 -113.5t118.5 -312.5q0 -207 -132 -325.5t-363 -118.5q-211 0 -333 101t-126 282z" />
<glyph unicode="6" d="M86 655q0 170 37 305.5t107.5 228.5t171 143t229.5 50q94 0 171 -26.5t132 -74.5t87 -115.5t34 -151.5h-275q-4 154 -44 220t-128 66q-59 0 -107 -36.5t-77 -102.5q-27 -66 -41 -189.5t-14 -285.5v-39q90 211 315 211q90 0 164 -29.5t127 -85t81.5 -132t28.5 -171.5 q0 -104 -33.5 -188t-96 -143.5t-150.5 -91t-197 -31.5q-150 0 -261 57t-173 166q-43 76 -65.5 190.5t-22.5 255.5zM373 408q0 -162 55 -250t160 -88q92 0 147 67q31 39 50.5 112t19.5 148q0 176 -54.5 267.5t-158.5 91.5t-161.5 -91.5t-57.5 -256.5z" />
<glyph unicode="7" d="M111 1155v211h952v-109q-104 -131 -191.5 -285.5t-151 -319.5t-101 -331.5t-44.5 -320.5h-290q59 305 219 603t397 552h-790z" />
<glyph unicode="8" d="M92 362q0 135 87 227.5t243 121.5q-72 14 -111 30.5t-75 44.5q-109 90 -109 240q0 80 33 145.5t92 112.5t142 72.5t186 25.5q100 0 183 -25.5t142.5 -71.5t91 -111.5t31.5 -145.5q0 -152 -108 -242q-39 -31 -78 -47t-107 -28q154 -29 241 -121t87 -228q0 -180 -128 -279 t-357 -99t-357.5 100t-128.5 278zM369 369q0 -147 53 -225t156 -78q100 0 154 77.5t54 218.5q1 310 -208 310q-102 0 -155.5 -78t-53.5 -225zM387 1026q0 -78 21.5 -144.5t56.5 -95.5q43 -37 113 -36q88 0 133 57q23 31 40 92.5t17 120.5q0 139 -48 211t-140 72 q-94 0 -143.5 -71t-49.5 -206z" />
<glyph unicode="9" d="M72 926q0 104 33.5 188t96 143.5t150.5 91t197 31.5q150 0 261.5 -57t172.5 -166q43 -76 65.5 -190.5t22.5 -255.5q0 -172 -37 -306.5t-107.5 -228.5t-171 -143t-229.5 -49q-94 0 -170.5 26.5t-132 73.5t-87.5 114.5t-34 151.5h275q4 -74 10 -117t21 -71q43 -96 141 -96 q127 0 183 143t56 469l3 41q-90 -211 -318 -211q-90 0 -163.5 29.5t-127 85t-82 132t-28.5 171.5zM352 969q0 -176 54.5 -267.5t158.5 -91.5t161.5 91.5t57.5 259.5q0 162 -55.5 248.5t-159.5 86.5q-96 0 -147 -67q-31 -39 -50.5 -112t-19.5 -148z" />
<glyph unicode=":" horiz-adv-x="518" d="M96 137q0 72 44 115t116 43t115 -45t43 -117q0 -68 -44 -112t-114 -44q-72 0 -116 44.5t-44 115.5zM96 750q0 72 44 114.5t116 42.5t115 -45t43 -117q0 -68 -44 -111.5t-114 -43.5q-72 0 -116 44t-44 116z" />
<glyph unicode=";" horiz-adv-x="524" d="M47 -293l113 551h293l-306 -551h-100zM129 750q0 72 44 114.5t116 42.5t114.5 -45t42.5 -117q0 -68 -44 -111.5t-113 -43.5q-72 0 -116 44t-44 116z" />
<glyph unicode="&#x3c;" horiz-adv-x="1024" d="M68 612v131l886 418v-174l-678 -309l678 -309v-174z" />
<glyph unicode="=" d="M90 444v162h977v-162h-977zM90 762v162h977v-162h-977z" />
<glyph unicode="&#x3e;" horiz-adv-x="1024" d="M70 195v174l678 309l-678 309v174l886 -418v-131z" />
<glyph unicode="?" horiz-adv-x="1054" d="M86 1016q2 66 13.5 113t39.5 90q51 84 159 129t253 45q98 0 179 -23.5t138.5 -66.5t89 -104.5t31.5 -137.5q0 -98 -50 -169t-167 -140l-65 -41q-49 -31 -81 -60.5t-51.5 -68.5t-26.5 -88.5t-7 -118.5h-92q0 84 3 137t15 94t35.5 78t64.5 90l54 68q47 59 66.5 113.5 t19.5 131.5q0 106 -43 163t-127 57q-92 0 -133.5 -69t-41.5 -222h-276zM338 135q0 72 43 114t115 42q70 0 112.5 -44t42.5 -116q0 -68 -43 -111t-112 -43q-70 0 -114 43t-44 115z" />
<glyph unicode="@" horiz-adv-x="1708" d="M98 616q0 168 63.5 310.5t175.5 247t264.5 164t330.5 59.5q154 0 277.5 -42t212.5 -118t137.5 -182.5t48.5 -237.5q0 -104 -35 -197.5t-95.5 -162t-140.5 -108.5t-172 -40q-180 0 -207 164q-53 -90 -107 -126t-132 -36q-111 0 -175.5 74t-64.5 197q0 98 31 185t83 152.5 t122.5 103.5t150.5 38q59 0 98.5 -24.5t65.5 -80.5l19 86h170l-82 -432q-8 -41 -12.5 -74.5t-4.5 -54.5q0 -47 23.5 -74.5t64.5 -27.5q51 0 97.5 38t81 102.5t55 149.5t20.5 179q0 111 -36.5 199t-106.5 151.5t-167 97t-216 33.5q-264 0 -440 -164q-111 -100 -173.5 -251.5 t-62.5 -321.5q0 -141 44 -248.5t130 -177.5q72 -59 166 -91t197 -32q51 0 97 6t118 23v-72q-78 -16 -129.5 -21.5t-108.5 -5.5q-160 0 -301 60.5t-233 169.5q-141 162 -142 413zM653 549q0 -78 26 -120t73 -42q45 0 90 31t73 82q39 68 61.5 161t22.5 183q0 70 -27.5 108.5 t-76.5 38.5q-45 0 -84 -27.5t-68 -74.5q-18 -35 -34.5 -78t-28.5 -88t-19.5 -90t-7.5 -84z" />
<glyph unicode="A" horiz-adv-x="1280" d="M-20 0l598 1378h131l591 -1378h-305l-174 426h-518l-160 -426h-163zM334 510h454l-237 584z" />
<glyph unicode="B" horiz-adv-x="1286" d="M176 0v1366h469q137 0 222 -15.5t153 -54.5t106.5 -109.5t38.5 -158.5q0 -281 -362 -317v-9q199 -12 299 -97t100 -243q0 -98 -44 -175.5t-120 -118.5q-37 -20 -75.5 -34t-87 -21t-111 -10t-146.5 -3h-442zM451 76h139q72 0 120 9t85 30q57 33 86.5 97t29.5 157 q0 188 -118 258q-37 20 -82 28.5t-113 8.5h-147v-588zM451 739h139q293 0 293 283q0 168 -113 231q-37 20 -83 28.5t-124 8.5h-112v-551z" />
<glyph unicode="C" horiz-adv-x="1421" d="M94 682q0 188 55.5 336.5t159.5 234.5q84 68 198 106t241 38q164 0 290.5 -56.5t200.5 -162.5q39 -53 57.5 -108.5t26.5 -133.5h-279q-12 184 -91 281.5t-216 97.5q-346 0 -346 -627q0 -637 340 -637q76 0 145.5 37t104.5 96q14 27 25.5 53.5t19.5 58.5t12 71t9 90h280 q-8 -86 -26.5 -145.5t-59.5 -116.5q-78 -111 -205 -168.5t-291 -57.5q-154 0 -287.5 55.5t-213.5 153.5q-70 84 -110 218t-40 286z" />
<glyph unicode="D" horiz-adv-x="1505" d="M180 0v1366h402q106 0 186 -5t142.5 -16.5t113.5 -30t102 -46.5q139 -78 213 -228.5t74 -355.5t-74.5 -353.5t-216.5 -228.5q-53 -31 -106 -50t-119 -31.5t-149.5 -16.5t-200.5 -4h-367zM459 82h121q162 0 257 31.5t158 109.5q123 147 123 453q0 373 -166 514 q-59 49 -142 71.5t-210 22.5h-141v-1202z" />
<glyph unicode="E" horiz-adv-x="1144" d="M180 0v1366h875v-86h-598v-537h530v-84h-530v-573h626v-86h-903z" />
<glyph unicode="F" horiz-adv-x="1046" d="M180 0v1366h844v-86h-567v-561h506v-84h-506v-635h-277z" />
<glyph unicode="G" horiz-adv-x="1458" d="M113 686q0 168 44 300t128 223t204.5 139.5t274.5 48.5q160 0 287 -56.5t200 -160.5q39 -53 57.5 -108.5t26.5 -133.5h-276q-10 178 -91 276.5t-214 98.5q-168 0 -256 -157t-88 -458q0 -326 91 -483.5t281 -157.5q61 0 125 9.5t156 31.5v469h272v-483q-61 -25 -136 -45.5 t-152.5 -34.5t-154.5 -22.5t-144 -8.5q-145 0 -272.5 55.5t-209.5 153.5q-72 86 -112.5 219.5t-40.5 284.5z" />
<glyph unicode="H" horiz-adv-x="1495" d="M180 0v1366h277v-625h583v625h277v-1366h-277v655h-583v-655h-277z" />
<glyph unicode="I" horiz-adv-x="634" d="M180 0v1366h277v-1366h-277z" />
<glyph unicode="J" horiz-adv-x="608" d="M6 -475q55 104 88 192t49 183q6 37 10.5 80t7.5 101t4 136t1 182v967h276v-917q0 -104 -3 -184.5t-10 -142t-18.5 -109.5t-29.5 -91q-23 -53 -48.5 -102t-61 -99.5t-85 -107.5t-114.5 -127z" />
<glyph unicode="K" horiz-adv-x="1376" d="M180 0v1366h277v-1366h-277zM485 711l600 655h205l-567 -532l643 -834h-346z" />
<glyph unicode="L" horiz-adv-x="1058" d="M184 0v1366h277v-1280h596v-86h-873z" />
<glyph unicode="M" horiz-adv-x="1824" d="M170 0v1366h342l399 -1018l402 1018h332v-1366h-273v1257l-489 -1257h-121l-492 1264v-1264h-100z" />
<glyph unicode="N" horiz-adv-x="1427" d="M172 0v1366h293l688 -991v991h102v-1376h-168l-813 1171v-1161h-102z" />
<glyph unicode="O" horiz-adv-x="1556" d="M94 684q0 119 23.5 223.5t70.5 184.5q86 147 239.5 228t350.5 81q160 0 287 -50.5t215 -144.5t135 -229t47 -305q0 -164 -48 -294t-137 -222.5t-216 -141.5t-285 -49q-160 0 -287 49t-214 142.5t-134 226.5t-47 301zM389 684q0 -160 20.5 -267.5t67.5 -193.5 q45 -84 123 -129t176 -45q195 0 293 158t98 467q0 176 -24.5 290.5t-79.5 204.5q-45 68 -121 108t-164 40q-98 0 -176 -46t-125 -130q-47 -88 -67.5 -193.5t-20.5 -263.5z" />
<glyph unicode="P" horiz-adv-x="1228" d="M180 0v1366h434q78 0 137.5 -4t105.5 -12.5t84 -21.5t73 -32q172 -96 172 -325q0 -113 -43 -196t-127 -130q-35 -20 -74 -33.5t-85 -22.5t-102.5 -13.5t-125.5 -4.5h-172v-571h-277zM457 651h159q145 0 212 76t67 242t-69.5 241.5t-223.5 75.5h-145v-635z" />
<glyph unicode="Q" horiz-adv-x="1554" d="M94 688q0 313 162 498q92 104 225 159.5t293 55.5q158 0 285 -50.5t216 -143.5t137 -225t48 -298q0 -580 -510 -702q14 -33 40 -70t56.5 -73t63.5 -68.5t64 -53.5q47 -31 125.5 -49t164.5 -18v-76h-88q-176 0 -297 35t-205 106q-25 23 -54 54.5t-57 67.5t-50.5 71 t-36.5 63q-74 8 -143.5 33t-141.5 68q-297 186 -297 616zM389 678q0 -627 389 -627q193 0 290 157t97 462q0 166 -21.5 277.5t-68.5 197.5q-45 80 -124 125t-175 45q-193 0 -290 -160t-97 -477z" />
<glyph unicode="R" horiz-adv-x="1347" d="M180 0v1366h453q70 0 125 -4t100 -12.5t82 -21.5t72 -34q76 -43 116.5 -116.5t40.5 -165.5q0 -147 -96 -232.5t-285 -107.5v-6q84 -4 142.5 -18.5t97.5 -48.5t63.5 -88t43.5 -138l100 -373h-287l-82 344q-23 96 -39 142t-36 69q-29 35 -82.5 51.5t-145.5 16.5h-106v-623 h-277zM457 702h145q279 0 279 297q0 147 -71 218t-218 71h-135v-586z" />
<glyph unicode="S" horiz-adv-x="1181" d="M70 397h266q2 -47 5 -81.5t8 -62.5t14.5 -51.5t21.5 -47.5q27 -49 85 -78t130 -29q115 0 183.5 62.5t68.5 166.5q0 109 -72 177q-16 14 -32.5 26.5t-39 24.5t-54 25.5t-76.5 31.5l-132 51q-49 18 -84.5 35t-64.5 33t-51.5 32.5t-42.5 39.5q-106 102 -107 249q0 90 36 164 t101.5 125t158.5 79t208 28q223 0 350 -106.5t127 -295.5h-262q-4 88 -14 135.5t-33 88.5q-23 45 -77 72.5t-118 27.5q-100 0 -161.5 -60.5t-61.5 -158.5q0 -43 12.5 -78t41 -64.5t75.5 -56.5t117 -53l133 -53q55 -23 96 -40.5t72 -33.5t53.5 -34.5t44.5 -39.5 q109 -102 109 -266q0 -92 -36 -172t-99 -133q-59 -51 -160.5 -79t-222.5 -28q-293 0 -422 154q-94 113 -94 274z" />
<glyph unicode="T" horiz-adv-x="1206" d="M0 1280v86h1208v-86h-465v-1280h-276v1280h-467z" />
<glyph unicode="U" horiz-adv-x="1417" d="M164 555v811h276v-856q0 -109 14.5 -180.5t45.5 -124.5q37 -66 110.5 -102.5t165.5 -36.5q102 0 186.5 45t129.5 125q31 53 44 120.5t13 171.5v838h113v-838q0 -115 -15.5 -190.5t-52.5 -140.5q-125 -223 -471 -224q-176 0 -300 58.5t-187 171.5q-39 66 -55.5 147.5 t-16.5 204.5z" />
<glyph unicode="V" horiz-adv-x="1222" d="M-20 1366h305l411 -1075l383 1075h166l-575 -1378h-133z" />
<glyph unicode="W" horiz-adv-x="1970" d="M-18 1366h292l357 -1030l366 1044h129l375 -1067l330 1053h162l-512 -1378h-140l-370 1036l-365 -1036h-139z" />
<glyph unicode="X" horiz-adv-x="1226" d="M10 0l467 653l-442 713h323l332 -547l314 547h178l-432 -604l469 -762h-328l-354 594l-349 -594h-178z" />
<glyph unicode="Y" horiz-adv-x="1161" d="M-23 1366h320l373 -676l342 676h174l-471 -776v-590h-277v567z" />
<glyph unicode="Z" horiz-adv-x="1167" d="M25 0v84l768 1196l-744 -12v98h1067v-82l-774 -1198l799 12v-98h-1116z" />
<glyph unicode="[" horiz-adv-x="722" d="M176 -555v2003h475v-82h-221v-1841h221v-80h-475z" />
<glyph unicode="\" horiz-adv-x="720" d="M-27 1460h127l801 -2027h-125z" />
<glyph unicode="]" horiz-adv-x="722" d="M72 -473h221v1839h-221v80h475v-2001h-475v82z" />
<glyph unicode="^" horiz-adv-x="1024" d="M63 766l359 602h178l358 -602h-163l-285 479l-283 -479h-164z" />
<glyph unicode="_" horiz-adv-x="1024" d="M0 -209h1024v-137h-1024v137z" />
<glyph unicode="`" horiz-adv-x="1024" d="M131 1405h266l230 -363h-80z" />
<glyph unicode="a" horiz-adv-x="1048" d="M66 240q0 168 159 237q31 14 71 24.5t94 17.5t124 12t160 8v94q0 119 -34 167t-120 48q-80 0 -117.5 -46t-40.5 -149v-10h-249q4 117 94 193q98 82 315 82q244 0 342 -111q35 -41 49.5 -95.5t14.5 -148.5v-563h-242v188q-39 -111 -112.5 -162t-196.5 -51q-147 0 -229 70 t-82 195zM322 252q0 -182 143 -182q63 0 111.5 38.5t72.5 110.5q25 70 25 256q-96 0 -164 -12t-110 -38t-60 -69t-18 -104z" />
<glyph unicode="b" horiz-adv-x="1161" d="M137 0v1448h254v-731q80 201 305 201q86 0 164 -34t129 -93q47 -53 72.5 -144.5t25.5 -195.5q0 -129 -36.5 -228.5t-106.5 -156.5q-104 -86 -250 -86q-236 0 -311 215v-195h-246zM391 449q0 -174 63.5 -277.5t174.5 -103.5q94 0 143 90t49 262q0 217 -45 313t-149 96 q-109 0 -172.5 -102t-63.5 -278z" />
<glyph unicode="c" horiz-adv-x="989" d="M74 446q0 109 32.5 196t93 147.5t147.5 93t196 32.5q180 0 287.5 -92t111.5 -245h-248v13q0 125 -37 187q-39 64 -118 64q-195 0 -195 -396q0 -389 240 -389q96 0 161.5 61.5t75.5 164.5h107q-16 -150 -114.5 -226.5t-272.5 -76.5q-221 0 -344 122.5t-123 343.5z" />
<glyph unicode="d" horiz-adv-x="1161" d="M74 451q0 129 36.5 227t106.5 153q51 43 114.5 65t133.5 22q113 0 186.5 -48.5t118.5 -152.5v731h254v-1448h-246v195q-76 -215 -311 -215q-88 0 -165 33.5t-128 95.5q-47 53 -73.5 145t-26.5 197zM340 475q0 -215 46 -311t149 -96q109 0 172 103t63 280q0 174 -63.5 276 t-174.5 102q-94 0 -143 -90t-49 -264z" />
<glyph unicode="e" horiz-adv-x="1058" d="M74 451q0 219 124 343t341 124q129 0 230 -49.5t151 -135.5q37 -63 52 -130.5t19 -166.5h-655q0 -199 62.5 -292t191.5 -93q98 0 171 56.5t101 156.5h107q-37 -141 -142.5 -215t-275.5 -74q-223 0 -350 126t-127 350zM336 506h391q0 170 -49 256t-141 86 q-195 0 -201 -342z" />
<glyph unicode="f" horiz-adv-x="608" d="M0 813v80h158q4 268 138 416.5t386 160.5v-219q-53 37 -88 50.5t-76 13.5q-86 0 -139 -57.5t-53 -151.5q0 -100 67 -182q8 -10 9 -15.5t4 -15.5h206v-80h-200v-813h-254v813h-158z" />
<glyph unicode="g" horiz-adv-x="1028" d="M31 -309q0 72 39 124t127 99q-74 66 -74 149q0 70 40 120t132 93q-207 90 -207 302q0 76 28.5 138t82 107t128 68.5t167.5 23.5q27 0 48 -1t42.5 -4t45 -8t52.5 -13h338v-86h-195q49 -47 72 -99.5t23 -123.5q0 -156 -107 -240q-53 -45 -139 -70.5t-178 -25.5q-35 0 -65 3 t-71 13q-47 -18 -66.5 -42.5t-19.5 -59.5q0 -25 8.5 -42.5t30 -29.5t58.5 -18.5t94 -10.5l186 -12q92 -4 149.5 -18.5t100.5 -38.5q47 -29 75 -85.5t28 -125.5q0 -174 -138.5 -271.5t-386.5 -97.5q-211 0 -329.5 75t-118.5 208zM172 -272q0 -111 92 -175.5t248 -64.5 q154 0 248 58.5t94 156.5q0 63 -45 94t-147 37l-230 16q-43 2 -69.5 5.5t-46 7.5t-36 9t-36.5 15q-72 -70 -72 -159zM328 586q0 -141 42 -208t134 -67q176 0 176 267q0 139 -42 204.5t-132 65.5q-178 0 -178 -262z" />
<glyph unicode="h" horiz-adv-x="1136" d="M137 0v1448h254v-748q35 104 116 159.5t198 55.5q94 0 164.5 -34.5t105.5 -100.5q23 -41 33 -90t10 -125v-565h-254v596q0 117 -35 172t-111 55q-53 0 -99 -28.5t-73 -77.5q-29 -55 -42 -128t-13 -183v-406h-254z" />
<glyph unicode="i" horiz-adv-x="526" d="M106 1276q0 63 43 101t115 38t114 -38t42 -105q0 -61 -41 -98t-113 -37q-74 0 -117 36.5t-43 102.5zM135 0v893h254v-893h-254z" />
<glyph unicode="j" horiz-adv-x="526" d="M31 -535q33 63 53 126t32.5 139.5t16.5 178t4 247.5v737h254v-698q0 -76 -3 -135.5t-9 -109.5t-17.5 -94t-25.5 -87q-14 -39 -23.5 -63.5t-28 -52.5t-49 -69t-88.5 -112q-16 -20 -23 -28.5t-22 -18.5zM106 1276q0 63 43 101t115 38t114 -38t42 -105q0 -61 -42 -98 t-114 -37t-115 36.5t-43 102.5z" />
<glyph unicode="k" horiz-adv-x="1087" d="M137 0v1448h254v-1448h-254zM422 500l399 393h187l-361 -297l443 -596h-306z" />
<glyph unicode="l" horiz-adv-x="526" d="M137 0v1448h254v-1448h-254z" />
<glyph unicode="m" horiz-adv-x="1716" d="M137 0v893h232v-217q23 59 39 90t45 57q41 43 105.5 66.5t135.5 23.5q244 0 289 -219q72 219 311 219q303 0 303 -311v-602h-251v580q0 78 -5.5 116.5t-19.5 65.5q-16 29 -47 45t-66 16q-104 0 -159.5 -102.5t-55.5 -300.5v-420h-252v565q0 145 -29.5 201.5t-107.5 56.5 q-49 0 -92 -27.5t-70 -74.5q-29 -53 -41 -117.5t-12 -171.5v-432h-252z" />
<glyph unicode="n" horiz-adv-x="1132" d="M137 0v893h236v-242q68 262 327 262q197 0 273 -133q23 -41 32 -86t9 -123v-571h-254v571q0 76 -5 115t-22 66q-16 31 -48 48t-69 17q-51 0 -97 -27.5t-70 -74.5q-31 -55 -44.5 -128t-13.5 -184v-403h-254z" />
<glyph unicode="o" horiz-adv-x="1122" d="M74 446q0 225 130 350.5t363 125.5q229 0 355.5 -127t126.5 -357q0 -113 -40 -209t-110 -151q-61 -51 -150.5 -79t-187.5 -28q-121 0 -223 40t-162 112q-47 55 -74.5 142t-27.5 181zM340 428q0 -383 217 -383q117 0 170 97.5t53 316.5q0 199 -54 294t-165 95 q-117 0 -169 -100.5t-52 -319.5z" />
<glyph unicode="p" horiz-adv-x="1161" d="M137 -553v1446h246v-195q76 215 311 215q186 0 289.5 -123.5t103.5 -347.5q0 -129 -36.5 -226t-106.5 -153q-51 -43 -114.5 -64.5t-135.5 -21.5q-219 0 -303 199v-729h-254zM391 444q0 -176 64.5 -277t175.5 -101q92 0 141 90t49 262q0 215 -46 311t-148 96 q-109 0 -172.5 -103.5t-63.5 -277.5z" />
<glyph unicode="q" horiz-adv-x="1161" d="M74 442q0 223 103.5 347t289.5 124q233 0 311 -215v195h246v-1446h-254v729q-84 -199 -305 -199q-86 0 -163 34t-130 93q-47 53 -72.5 143.5t-25.5 194.5zM340 473q0 -123 11 -197.5t40 -125.5q20 -39 59 -61.5t85 -22.5q109 0 172 102t63 276q0 176 -63.5 278.5 t-174.5 102.5q-94 0 -143 -90t-49 -262z" />
<glyph unicode="r" horiz-adv-x="763" d="M141 0v893h240v-270q27 78 56.5 130t69.5 85.5t94 50t128 22.5v-241q-51 16 -82 21t-65 5q-88 0 -137.5 -63.5t-49.5 -177.5v-455h-254z" />
<glyph unicode="s" horiz-adv-x="911" d="M66 266h215v-14q0 -205 188 -205q74 0 120 39t46 102q0 53 -38 87t-124 59l-111 28q-150 41 -213 102.5t-63 166.5q0 63 26.5 116.5t75 91.5t116 58.5t149.5 20.5q164 0 256 -70t104 -203h-207q-2 109 -39 155t-121 46q-70 0 -112.5 -37t-42.5 -96q0 -51 37 -84t116 -56 l134 -36q135 -35 197.5 -99.5t62.5 -167.5q0 -137 -101.5 -216t-279.5 -79q-182 0 -284.5 76t-106.5 215z" />
<glyph unicode="t" horiz-adv-x="679" d="M4 813v80h143v246l254 59v-305h254v-80h-254v-553q0 -104 25 -147t86 -43q53 0 141 26v-82q-70 -18 -127 -26t-114 -8q-162 0 -230 114q-20 35 -27.5 77t-7.5 112v530h-143z" />
<glyph unicode="u" horiz-adv-x="1130" d="M121 322v571h254v-571q0 -76 5 -115t21 -66q16 -31 48 -48t69 -17q51 0 97.5 27.5t70.5 74.5q31 55 44 129t13 185v401h254v-893h-235v242q-66 -262 -328 -262q-197 0 -272 133q-23 41 -32 86t-9 123z" />
<glyph unicode="v" horiz-adv-x="915" d="M14 893h279l242 -653l221 653h147l-383 -905h-141z" />
<glyph unicode="w" horiz-adv-x="1484" d="M18 893h275l221 -655l234 661h147l229 -670l199 664h143l-352 -905h-145l-234 653l-233 -653h-146z" />
<glyph unicode="x" horiz-adv-x="929" d="M-2 0l344 418l-322 475h299l209 -322l215 322h150l-311 -383l348 -510h-301l-236 356l-243 -356h-152z" />
<glyph unicode="y" horiz-adv-x="921" d="M-8 -375q82 0 138 11.5t98 41t76 81t71 135.5l28 73l-401 926h281l252 -627l210 627h146l-449 -1059q-47 -115 -93 -190.5t-98 -122.5t-114.5 -68.5t-144.5 -23.5v196z" />
<glyph unicode="z" horiz-adv-x="866" d="M29 0v66l485 751l-465 -10v86h760v-68l-492 -749l517 10v-86h-805z" />
<glyph unicode="{" horiz-adv-x="778" d="M29 408v73q211 8 211 199v364q0 57 2 99.5t8 75t15 59.5t24 51q37 63 99.5 92t162.5 31l170 2v-80q-127 -4 -177 -51t-50 -160v-485q0 -98 -43 -152.5t-146 -81.5q102 -29 145.5 -82t43.5 -151v-481q0 -113 50 -160t177 -51v-80h-170q-98 0 -161.5 29.5t-98.5 93.5 q-14 25 -24.5 51.5t-16.5 59t-8 74.5t-2 99v363q0 190 -211 199z" />
<glyph unicode="|" horiz-adv-x="1024" d="M426 -342v1708h172v-1708h-172z" />
<glyph unicode="}" horiz-adv-x="778" d="M55 -481q127 4 177.5 51t50.5 160v483q0 98 43 151.5t145 81.5q-102 27 -145 81.5t-43 152.5v483q0 113 -50.5 160t-177.5 51v80l170 -2q100 -2 163 -30.5t97 -92.5q29 -49 40.5 -110.5t11.5 -174.5v-362q0 -98 50 -145.5t161 -53.5v-73q-211 -8 -211 -199v-365 q0 -57 -2.5 -99t-8.5 -74.5t-15 -59.5t-24 -51q-37 -63 -100 -93t-162 -30h-170v80z" />
<glyph unicode="&#xa1;" horiz-adv-x="675" d="M176 764q0 68 44 111t112 43q72 0 114.5 -43.5t42.5 -114.5q0 -72 -43 -114t-114 -42q-70 0 -113 44t-43 116zM186 -477l103 981h100l98 -981h-301z" />
<glyph unicode="&#xa2;" horiz-adv-x="991" d="M74 455q0 201 108.5 317.5t313.5 134.5v226h79v-226q82 -4 151 -28.5t117 -67.5t74.5 -101.5t26.5 -129.5h-244q2 111 -27.5 169t-97.5 80v-749q233 18 252 215h103q-20 -272 -355 -295v-223h-79v223q-207 18 -314.5 134t-107.5 321zM342 446q0 -158 35 -238.5 t117 -113.5v733q-39 -12 -60.5 -28.5t-38.5 -50.5q-53 -94 -53 -302z" />
<glyph unicode="&#xa3;" horiz-adv-x="1216" d="M47 684v82h203v68q0 123 15.5 204.5t49.5 143.5q53 94 155.5 146t231.5 52q197 0 309.5 -102t116.5 -287h-266v21q0 150 -40 217t-130 67q-45 0 -82 -20.5t-55 -54.5q-10 -18 -16.5 -39t-10.5 -47.5t-5 -62.5t-1 -87v-219h283v-82h-283q-2 -102 -11 -176t-28.5 -129 t-53.5 -97t-83 -79h789v-203h-1084v68q55 4 94 28.5t61.5 73.5t33 129t10.5 195v190h-203z" />
<glyph unicode="&#xa4;" horiz-adv-x="1282" d="M98 1135l105 104l151 -152q131 94 283 95q78 0 145.5 -22.5t135.5 -72.5l151 150l107 -107l-152 -149q47 -68 69.5 -135.5t22.5 -145.5t-22.5 -145.5t-69.5 -132.5l154 -154l-105 -104l-151 153q-133 -94 -283 -94q-152 0 -283 92l-149 -149l-107 106l152 150 q-94 131 -94 280q0 145 94 279zM313 702q0 -68 26 -126t70 -102t102 -69.5t126 -25.5q66 0 125 25.5t103 68.5t70 101.5t26 123.5q0 70 -26 129.5t-70 104.5t-103 70.5t-127 25.5q-66 0 -124 -25.5t-102 -69.5t-70 -103.5t-26 -127.5z" />
<glyph unicode="&#xa5;" horiz-adv-x="1329" d="M55 1366h320l373 -674l342 674h174l-289 -475h221v-70h-264l-133 -223h319v-70h-325v-528h-277v528h-323v70h307l-129 223h-273v70h232z" />
<glyph unicode="&#xa6;" horiz-adv-x="1024" d="M426 313h172v-655h-172v655zM426 678v688h172v-688h-172z" />
<glyph unicode="&#xa7;" horiz-adv-x="1116" d="M106 477q0 98 50.5 169t160.5 130q-88 68 -123.5 131.5t-35.5 147.5q0 76 29.5 138t83 107.5t128 70t166.5 24.5q115 0 200 -37t126 -103q25 -43 44 -100t23 -98v-13h-256q0 152 -36.5 212.5t-128.5 60.5q-78 0 -126.5 -45t-48.5 -115q0 -72 56 -127l10 -10t14.5 -12.5 t30 -21.5t55.5 -38l281 -194q39 -29 63.5 -46.5t40 -30.5t25.5 -24.5t20 -27.5q53 -82 54 -174q0 -96 -49.5 -168t-159.5 -131q86 -66 120.5 -128.5t34.5 -150.5q0 -94 -45 -176t-116 -121q-47 -27 -119 -43t-135 -16q-92 0 -175 32.5t-132 90.5q-37 43 -63 109.5t-26 119.5 v12h259q2 -80 7 -123t19 -71q18 -43 57 -66.5t93 -23.5q78 0 127 48t49 124q0 31 -6.5 54t-22.5 45.5t-43 44t-65 48.5l-285 191q-39 25 -64.5 43t-44 33.5t-32 28.5t-25.5 32q-63 84 -64 188zM274 592q0 -66 52 -121q10 -12 29.5 -27.5t78.5 -54.5l297 -203q59 37 83 72 t24 82q0 25 -5.5 45.5t-20.5 39.5t-42 40.5t-68 50.5l-317 223q-59 -35 -85 -68.5t-26 -78.5z" />
<glyph unicode="&#xa8;" horiz-adv-x="1024" d="M158 1206q0 57 36 92t93 35q59 0 94 -34.5t35 -94.5q0 -57 -36 -93t-93 -36q-59 0 -94 36t-35 95zM602 1206q0 57 36 92t93 35q59 0 94 -34.5t35 -94.5q0 -59 -36 -94t-95 -35q-57 0 -92 36t-35 95z" />
<glyph unicode="&#xa9;" horiz-adv-x="1609" d="M94 682q0 150 56.5 280t153.5 226t228 151.5t283 55.5q143 0 271 -56.5t223.5 -154t151 -226.5t55.5 -274q0 -147 -55.5 -277.5t-153 -226.5t-226.5 -152.5t-276 -56.5t-276.5 56.5t-225.5 152.5t-152.5 225.5t-56.5 276.5zM178 682q0 -133 49 -250t134 -205t200 -138 t244 -50t243.5 50t199.5 138t134.5 206t49.5 251q0 131 -49.5 248t-133.5 205t-196.5 139t-239.5 51q-133 0 -248.5 -50t-202 -137t-135.5 -205t-49 -253zM403 682q0 205 110 316.5t308 111.5q164 0 261.5 -74.5t109.5 -210.5h-191q-12 221 -186 222q-211 0 -211 -363 q0 -367 207 -367q47 0 89 21.5t65 56.5q18 31 26 66t13 96h190q-12 -145 -110.5 -223t-264.5 -78q-199 0 -307.5 111.5t-108.5 314.5z" />
<glyph unicode="&#xaa;" horiz-adv-x="667" d="M39 694q0 104 104 148q39 16 103.5 24t175.5 11v51q0 66 -19.5 92.5t-68.5 26.5q-51 0 -71.5 -25t-22.5 -88v-8h-170q0 176 268 176q109 0 176 -37q45 -25 63.5 -66t18.5 -112v-340h-166v84q-37 -55 -78 -77t-110 -22q-94 0 -148.5 43t-54.5 119zM215 702q0 -100 82 -100 q78 0 111 84q14 37 14 141q-115 0 -161 -28.5t-46 -96.5z" />
<glyph unicode="&#xab;" horiz-adv-x="942" d="M78 469l307 365h104l-170 -365l170 -363h-104zM461 469l309 365h102l-170 -365l172 -363h-104z" />
<glyph unicode="&#xac;" horiz-adv-x="1024" d="M68 408v157h886v-565h-168v408h-718z" />
<glyph unicode="&#xad;" horiz-adv-x="643" d="M82 403v162h481v-162h-481z" />
<glyph unicode="&#xae;" horiz-adv-x="1609" d="M94 682q0 150 56.5 280t153.5 226t228 151.5t283 55.5q143 0 271 -56.5t223.5 -154t151 -226.5t55.5 -274q0 -147 -55.5 -277.5t-153 -226.5t-226.5 -152.5t-276 -56.5t-276.5 56.5t-225.5 152.5t-152.5 225.5t-56.5 276.5zM178 682q0 -133 49 -250t134 -205t200 -138 t244 -50t243.5 50t199.5 138t134.5 206t49.5 251q0 131 -49.5 248t-133.5 205t-196.5 139t-239.5 51q-133 0 -248.5 -50t-202 -137t-135.5 -205t-49 -253zM485 272v820h293q176 0 260 -52.5t84 -162.5q0 -80 -45 -125t-151 -74q41 -6 69.5 -16.5t48 -31t33 -51t25.5 -75.5 l63 -232h-194l-53 211q-12 53 -25.5 85t-33 48.5t-49.5 21.5t-77 5h-59v-371h-189zM674 702h84q170 0 170 166q0 164 -176 164h-78v-330z" />
<glyph unicode="&#xaf;" horiz-adv-x="1024" d="M211 1112v168h602v-168h-602z" />
<glyph unicode="&#xb0;" horiz-adv-x="819" d="M102 1094q0 66 25 122t67 98t99 66.5t123 24.5q63 0 118.5 -24.5t95.5 -66.5t63.5 -99.5t23.5 -122.5q0 -66 -23.5 -123.5t-65.5 -99.5t-98.5 -66.5t-119.5 -24.5q-66 0 -121.5 24.5t-97 66.5t-65.5 99.5t-24 125.5zM217 1090q0 -41 15.5 -76t41 -61.5t60.5 -42t76 -15.5 q39 0 73.5 15.5t61 42t41 62.5t14.5 77q0 82 -54 139t-132 57q-84 0 -140.5 -56t-56.5 -142z" />
<glyph unicode="&#xb1;" horiz-adv-x="1124" d="M20 754v112h486v490h112v-490h486v-112h-486v-490h-112v490h-486zM23 0v113h1073v-113h-1073z" />
<glyph unicode="&#xb2;" horiz-adv-x="745" d="M55 547q0 57 10.5 103t37 87t70.5 81t112 85q57 39 94 70t58.5 60.5t28.5 62t7 78.5q0 137 -104 137q-59 0 -84 -43t-25 -154h-188v10q0 121 80.5 185.5t228.5 64.5q135 0 210 -58.5t75 -168.5q0 -80 -53.5 -136.5t-186.5 -115.5q-55 -25 -95 -48.5t-66.5 -48t-43 -51 t-24.5 -59.5h479v-141h-621z" />
<glyph unicode="&#xb3;" horiz-adv-x="745" d="M55 774v10h191q0 -98 27.5 -141t93.5 -43q57 0 88.5 41t31.5 117q0 98 -48 139t-160 41v63q92 2 143 49.5t51 133.5q0 59 -26.5 93t-73.5 34q-63 0 -89 -40t-26 -138h-186q2 117 80.5 179t222.5 62q135 0 211 -55t76 -154q0 -78 -44.5 -124t-146.5 -68q109 -20 158 -69.5 t49 -135.5q0 -111 -83 -171t-230 -60t-228.5 62.5t-81.5 174.5z" />
<glyph unicode="&#xb4;" horiz-adv-x="1024" d="M397 1042l228 363h268l-418 -363h-78z" />
<glyph unicode="&#xb6;" horiz-adv-x="1148" d="M61 995q0 84 33 159t90 122q49 43 135.5 66.5t190.5 23.5h555v-137h-160v-1782h-90v1782h-209v-1782h-92v1186h-51q-184 0 -293 98t-109 264z" />
<glyph unicode="&#xb7;" horiz-adv-x="518" d="M96 520q0 72 44 115t116 43t115 -45t43 -117q0 -68 -44 -112t-114 -44q-72 0 -116 44.5t-44 115.5z" />
<glyph unicode="&#xb8;" horiz-adv-x="1024" d="M276 -471l232 430h82l-88 -430h-226z" />
<glyph unicode="&#xb9;" horiz-adv-x="745" d="M98 1229l308 141h90v-823h-185v710l-200 -98z" />
<glyph unicode="&#xba;" horiz-adv-x="714" d="M43 817q0 135 83.5 211t233.5 76q147 0 228.5 -77t81.5 -216q0 -129 -84 -205t-230 -76q-147 0 -230 76t-83 211zM225 817q0 -119 32 -174t99 -55q131 0 131 215q0 129 -30.5 186.5t-100.5 57.5q-68 0 -99.5 -55.5t-31.5 -174.5z" />
<glyph unicode="&#xbb;" horiz-adv-x="942" d="M70 834h104l309 -363l-309 -365h-102l170 365zM453 106l172 365l-172 363h104l309 -363l-309 -365h-104z" />
<glyph unicode="&#xbc;" horiz-adv-x="1748" d="M98 1229l308 141h90v-823h-185v710l-200 -98zM436 -12l787 1435l88 -49l-787 -1431zM1032 197v106l436 528h121v-522h123v-112h-123v-197h-182v197h-375zM1120 309h289v357z" />
<glyph unicode="&#xbd;" horiz-adv-x="1748" d="M98 1229l308 141h90v-823h-185v710l-200 -98zM436 -12l787 1435l88 -49l-787 -1431zM1057 0q0 57 10 103.5t36.5 87t71 80.5t111.5 85q57 39 94 70t58.5 60.5t29 62.5t7.5 78q0 137 -103 137q-59 0 -84.5 -42t-25.5 -134v-9.5t2 -11.5h-191v11q-4 117 79 183t230 66 q135 0 210 -58t75 -169q0 -80 -53 -136t-187 -116q-55 -25 -95 -48.5t-66.5 -48t-43 -51t-24.5 -59.5h479v-141h-620z" />
<glyph unicode="&#xbe;" horiz-adv-x="1748" d="M55 774v10h191q0 -98 27.5 -141t93.5 -43q57 0 88.5 41t31.5 117q0 98 -48 139t-160 41v63q92 2 143 49.5t51 133.5q0 59 -26.5 93t-73.5 34q-63 0 -89 -40t-26 -138h-186q2 117 80.5 179t222.5 62q135 0 211 -55t76 -154q0 -78 -44.5 -124t-146.5 -68q109 -20 158 -69.5 t49 -135.5q0 -111 -83 -171t-230 -60t-228.5 62.5t-81.5 174.5zM436 -12l787 1435l90 -49l-787 -1431zM1032 197v106l436 528h121v-522h123v-112h-123v-197h-182v197h-375zM1120 309h289v357z" />
<glyph unicode="&#xbf;" horiz-adv-x="1058" d="M66 -170q0 98 49 168t168 141l67 41q49 31 81 61.5t50.5 68.5t26.5 87t8 119h92q0 -84 -4 -138t-16.5 -95t-36 -78t-62.5 -88l-55 -68q-47 -61 -66.5 -114.5t-19.5 -131.5q0 -106 43 -162.5t127 -56.5q92 0 133 67.5t41 223.5h277q-2 -66 -13.5 -112t-37.5 -91 q-53 -84 -161 -129t-253 -45q-98 0 -179 23.5t-138.5 66.5t-89 104.5t-31.5 137.5zM397 766q0 68 43 111t113 43q72 0 115 -43t43 -115t-43 -114t-115 -42q-70 0 -113 44t-43 116z" />
<glyph unicode="&#xc0;" horiz-adv-x="1280" d="M-20 0l598 1378h131l591 -1378h-305l-174 426h-518l-160 -426h-163zM264 1821h266l230 -363h-80zM334 510h454l-237 584z" />
<glyph unicode="&#xc1;" horiz-adv-x="1280" d="M-20 0l598 1378h131l591 -1378h-305l-174 426h-518l-160 -426h-163zM334 510h454l-237 584zM524 1458l228 363h268l-418 -363h-78z" />
<glyph unicode="&#xc2;" horiz-adv-x="1280" d="M-20 0l598 1378h131l591 -1378h-305l-174 426h-518l-160 -426h-163zM295 1440l307 391h74l313 -391h-82l-266 178l-262 -178h-84zM334 510h454l-237 584z" />
<glyph unicode="&#xc3;" horiz-adv-x="1280" d="M-20 0l598 1378h131l591 -1378h-305l-174 426h-518l-160 -426h-163zM248 1538l37 49q37 51 66.5 84t55 52.5t52 27.5t57.5 8q72 0 168 -59q98 -57 154 -58q27 0 56.5 25t72.5 80l61 -23q-8 -14 -16 -25t-19 -22q-37 -49 -65.5 -82.5t-54 -54t-50 -29t-51.5 -8.5 q-37 0 -83 16.5t-95 45.5q-45 27 -85 42t-69 15q-27 0 -48 -16.5t-62 -67.5q-6 -6 -19 -22zM334 510h454l-237 584z" />
<glyph unicode="&#xc4;" horiz-adv-x="1280" d="M-20 0l598 1378h131l591 -1378h-305l-174 426h-518l-160 -426h-163zM289 1624q0 57 36 92t93 35q59 0 94 -36t35 -93t-36 -93t-93 -36q-59 0 -94 36t-35 95zM334 510h454l-237 584zM733 1624q0 57 35 92t94 35q57 0 93 -36t36 -93t-35.5 -93t-93.5 -36q-59 0 -94 36 t-35 95z" />
<glyph unicode="&#xc5;" horiz-adv-x="1280" d="M-20 0l598 1378h131l591 -1378h-305l-174 426h-518l-160 -426h-163zM334 510h454l-237 584zM406 1663q0 109 63 171t174 62t173.5 -61t62.5 -170q0 -111 -63.5 -172t-178.5 -61q-106 0 -168.5 62t-62.5 169zM535 1663q0 -172 108 -172q109 0 109 172q-1 174 -107 174 q-111 0 -110 -174z" />
<glyph unicode="&#xc6;" horiz-adv-x="1769" d="M-20 0l688 1366h1018v-86h-685l89 -532h528v-86h-512l94 -576h510v-86h-768l-74 446h-526l-199 -446h-163zM379 530h475l-121 758z" />
<glyph unicode="&#xc7;" horiz-adv-x="1421" d="M94 682q0 188 55.5 336.5t159.5 234.5q84 68 198 106t241 38q164 0 290.5 -56.5t200.5 -162.5q39 -53 57.5 -108.5t26.5 -133.5h-279q-12 184 -91 281.5t-216 97.5q-346 0 -346 -627q0 -637 340 -637q76 0 145.5 37t104.5 96q14 27 25.5 53.5t19.5 58.5t12 71t9 90h280 q-8 -86 -26.5 -145.5t-59.5 -116.5q-78 -111 -205 -168.5t-291 -57.5q-154 0 -287.5 55.5t-213.5 153.5q-70 84 -110 218t-40 286zM475 -471l232 430h81l-88 -430h-225z" />
<glyph unicode="&#xc8;" horiz-adv-x="1144" d="M176 0v1366h875v-86h-598v-537h530v-84h-530v-573h626v-86h-903zM233 1821h267l229 -363h-80z" />
<glyph unicode="&#xc9;" horiz-adv-x="1144" d="M180 0v1366h875v-86h-598v-537h530v-84h-530v-573h626v-86h-903zM498 1458l227 363h268l-418 -363h-77z" />
<glyph unicode="&#xca;" horiz-adv-x="1144" d="M180 0v1366h875v-86h-598v-537h530v-84h-530v-573h626v-86h-903zM266 1440l307 391h74l314 -391h-82l-267 178l-262 -178h-84z" />
<glyph unicode="&#xcb;" horiz-adv-x="1144" d="M180 0v1366h875v-86h-598v-537h530v-84h-530v-573h626v-86h-903zM262 1624q0 57 36 92t93 35q59 0 94 -36t35 -93t-35.5 -93t-93.5 -36q-59 0 -94 36t-35 95zM707 1624q0 57 35 92t94 35q57 0 93 -36t36 -93t-36 -93t-93 -36q-59 0 -94 36t-35 95z" />
<glyph unicode="&#xcc;" horiz-adv-x="634" d="M-59 1821h266l229 -363h-80zM180 0v1366h277v-1366h-277z" />
<glyph unicode="&#xcd;" horiz-adv-x="634" d="M178 0v1366h277v-1366h-277zM199 1458l227 363h268l-418 -363h-77z" />
<glyph unicode="&#xce;" horiz-adv-x="634" d="M-31 1440l307 391h74l314 -391h-82l-267 178l-262 -178h-84zM178 0v1366h277v-1366h-277z" />
<glyph unicode="&#xcf;" horiz-adv-x="634" d="M25 1618q0 55 33.5 89t88.5 34q57 0 91 -34t34 -91q0 -55 -34.5 -89t-90.5 -34q-55 0 -88.5 35t-33.5 90zM180 0v1366h277v-1366h-277zM369 1620q0 53 34 87t89 34q57 0 90.5 -34t33.5 -91q0 -55 -34.5 -89t-89.5 -34t-89 35t-34 92z" />
<glyph unicode="&#xd0;" horiz-adv-x="1515" d="M31 657v76h159v633h402q106 0 185 -5t141.5 -15.5t112.5 -30t99 -45.5q139 -78 215 -228.5t76 -349.5q0 -211 -73.5 -359.5t-217.5 -230.5q-53 -31 -106 -50t-117.5 -31.5t-148.5 -16.5t-201 -4h-367v657h-159zM469 82h121q162 0 256 32.5t158 110.5q123 147 122 455 q0 367 -165 510q-59 49 -141.5 71.5t-209.5 22.5h-141v-551h258v-76h-258v-575z" />
<glyph unicode="&#xd1;" horiz-adv-x="1427" d="M172 0v1366h293l688 -991v991h102v-1376h-168l-813 1171v-1161h-102zM326 1538l36 49q37 51 67 84t55.5 52.5t52 27.5t57.5 8q72 0 168 -59q98 -57 153 -58q27 0 56.5 25t72.5 80l62 -23q-8 -14 -16.5 -25t-18.5 -22q-37 -49 -65.5 -82.5t-54 -54t-50 -29t-51.5 -8.5 q-37 0 -83 16.5t-95 45.5q-45 27 -85 42t-69 15q-27 0 -48 -16.5t-62 -67.5q-6 -6 -19 -22z" />
<glyph unicode="&#xd2;" horiz-adv-x="1556" d="M94 684q0 119 23.5 223.5t70.5 184.5q86 147 239.5 228t350.5 81q160 0 287 -50.5t215 -144.5t135 -229t47 -305q0 -164 -48 -294t-137 -222.5t-216 -141.5t-285 -49q-160 0 -287 49t-214 142.5t-134 226.5t-47 301zM389 684q0 -160 20.5 -267.5t67.5 -193.5 q45 -84 123 -129t176 -45q195 0 293 158t98 467q0 176 -24.5 290.5t-79.5 204.5q-45 68 -121 108t-164 40q-98 0 -176 -46t-125 -130q-47 -88 -67.5 -193.5t-20.5 -263.5zM401 1821h267l229 -363h-80z" />
<glyph unicode="&#xd3;" horiz-adv-x="1556" d="M94 684q0 119 23.5 223.5t70.5 184.5q86 147 239.5 228t350.5 81q160 0 287 -50.5t215 -144.5t135 -229t47 -305q0 -164 -48 -294t-137 -222.5t-216 -141.5t-285 -49q-160 0 -287 49t-214 142.5t-134 226.5t-47 301zM389 684q0 -160 20.5 -267.5t67.5 -193.5 q45 -84 123 -129t176 -45q195 0 293 158t98 467q0 176 -24.5 290.5t-79.5 204.5q-45 68 -121 108t-164 40q-98 0 -176 -46t-125 -130q-47 -88 -67.5 -193.5t-20.5 -263.5zM662 1458l227 363h268l-418 -363h-77z" />
<glyph unicode="&#xd4;" horiz-adv-x="1556" d="M94 684q0 119 23.5 223.5t70.5 184.5q86 147 239.5 228t350.5 81q160 0 287 -50.5t215 -144.5t135 -229t47 -305q0 -164 -48 -294t-137 -222.5t-216 -141.5t-285 -49q-160 0 -287 49t-214 142.5t-134 226.5t-47 301zM389 684q0 -160 20.5 -267.5t67.5 -193.5 q45 -84 123 -129t176 -45q195 0 293 158t98 467q0 176 -24.5 290.5t-79.5 204.5q-45 68 -121 108t-164 40q-98 0 -176 -46t-125 -130q-47 -88 -67.5 -193.5t-20.5 -263.5zM430 1440l307 391h74l313 -391h-82l-266 178l-262 -178h-84z" />
<glyph unicode="&#xd5;" horiz-adv-x="1556" d="M94 684q0 119 23.5 223.5t70.5 184.5q86 147 239.5 228t350.5 81q160 0 287 -50.5t215 -144.5t135 -229t47 -305q0 -164 -48 -294t-137 -222.5t-216 -141.5t-285 -49q-160 0 -287 49t-214 142.5t-134 226.5t-47 301zM389 684q0 -160 20.5 -267.5t67.5 -193.5 q45 -84 123 -129t176 -45q195 0 293 158t98 467q0 176 -24.5 290.5t-79.5 204.5q-45 68 -121 108t-164 40q-98 0 -176 -46t-125 -130q-47 -88 -67.5 -193.5t-20.5 -263.5zM389 1538l37 49q37 51 66.5 84t55 52.5t52.5 27.5t57 8q72 0 168 -59q98 -57 154 -58q27 0 56.5 25 t72.5 80l61 -23q-8 -14 -16 -25t-18 -22q-37 -49 -66 -82.5t-54.5 -54t-50 -29t-51.5 -8.5q-37 0 -83 16.5t-95 45.5q-45 27 -85 42t-68 15q-27 0 -48.5 -16.5t-62.5 -67.5q-6 -6 -18 -22z" />
<glyph unicode="&#xd6;" horiz-adv-x="1556" d="M94 684q0 119 23.5 223.5t70.5 184.5q86 147 239.5 228t350.5 81q160 0 287 -50.5t215 -144.5t135 -229t47 -305q0 -164 -48 -294t-137 -222.5t-216 -141.5t-285 -49q-160 0 -287 49t-214 142.5t-134 226.5t-47 301zM389 684q0 -160 20.5 -267.5t67.5 -193.5 q45 -84 123 -129t176 -45q195 0 293 158t98 467q0 176 -24.5 290.5t-79.5 204.5q-45 68 -121 108t-164 40q-98 0 -176 -46t-125 -130q-47 -88 -67.5 -193.5t-20.5 -263.5zM424 1624q0 57 36 92t93 35q59 0 94 -36t35 -93t-36 -93t-93 -36q-59 0 -94 36t-35 95zM868 1624 q0 57 35 92t94 35q57 0 93 -36t36 -93t-35.5 -93t-93.5 -36q-59 0 -94 36t-35 95z" />
<glyph unicode="&#xd7;" d="M156 993l112 113l310 -307l303 303l114 -115l-303 -305l309 -307l-114 -113l-307 309l-306 -305l-114 115l305 305z" />
<glyph unicode="&#xd8;" horiz-adv-x="1556" d="M94 684q0 168 47 301t137.5 225.5t219.5 141.5t293 49q49 0 86.5 -3t74.5 -11.5t75 -23.5t85 -38l111 184l67 -47l-110 -184q147 -102 214.5 -245.5t67.5 -350.5q0 -170 -47 -303t-137 -225.5t-219 -140.5t-295 -48q-49 0 -88 3t-75 12.5t-74 23.5t-85 37l-110 -184 l-68 47l109 182q-279 182 -279 598zM389 690q0 -84 4 -149.5t14.5 -118.5t27 -97t38.5 -83l561 962q-100 113 -254 113q-98 0 -177 -46t-126 -130q-47 -88 -67.5 -192.5t-20.5 -258.5zM520 166q94 -117 258 -117q193 0 291 159t98 470q0 162 -19.5 266.5t-64.5 181.5z" />
<glyph unicode="&#xd9;" horiz-adv-x="1417" d="M164 555v811h276v-856q0 -109 14.5 -180.5t45.5 -124.5q37 -66 110.5 -102.5t165.5 -36.5q102 0 186.5 45t129.5 125q31 53 44 120.5t13 171.5v838h113v-838q0 -115 -15.5 -190.5t-52.5 -140.5q-125 -223 -471 -224q-176 0 -300 58.5t-187 171.5q-39 66 -55.5 147.5 t-16.5 204.5zM365 1821h266l229 -363h-80z" />
<glyph unicode="&#xda;" horiz-adv-x="1417" d="M164 555v811h276v-856q0 -109 14.5 -180.5t45.5 -124.5q37 -66 110.5 -102.5t165.5 -36.5q102 0 186.5 45t129.5 125q31 53 44 120.5t13 171.5v838h113v-838q0 -115 -15.5 -190.5t-52.5 -140.5q-125 -223 -471 -224q-176 0 -300 58.5t-187 171.5q-39 66 -55.5 147.5 t-16.5 204.5zM625 1458l227 363h268l-418 -363h-77z" />
<glyph unicode="&#xdb;" horiz-adv-x="1417" d="M164 555v811h276v-856q0 -109 14.5 -180.5t45.5 -124.5q37 -66 110.5 -102.5t165.5 -36.5q102 0 186.5 45t129.5 125q31 53 44 120.5t13 171.5v838h113v-838q0 -115 -15.5 -190.5t-52.5 -140.5q-125 -223 -471 -224q-176 0 -300 58.5t-187 171.5q-39 66 -55.5 147.5 t-16.5 204.5zM393 1440l307 391h74l313 -391h-81l-267 178l-262 -178h-84z" />
<glyph unicode="&#xdc;" horiz-adv-x="1417" d="M164 555v811h276v-856q0 -109 14.5 -180.5t45.5 -124.5q37 -66 110.5 -102.5t165.5 -36.5q102 0 186.5 45t129.5 125q31 53 44 120.5t13 171.5v838h113v-838q0 -115 -15.5 -190.5t-52.5 -140.5q-125 -223 -471 -224q-176 0 -300 58.5t-187 171.5q-39 66 -55.5 147.5 t-16.5 204.5zM389 1624q0 57 36 92t93 35q59 0 94 -36t35 -93t-36 -93t-93 -36q-59 0 -94 36t-35 95zM834 1624q0 57 35 92t94 35q57 0 93 -36t36 -93t-36 -93t-93 -36q-59 0 -94 36t-35 95z" />
<glyph unicode="&#xdd;" horiz-adv-x="1161" d="M-23 1366h320l373 -676l342 676h174l-471 -776v-590h-277v567zM492 1458l227 363h268l-418 -363h-77z" />
<glyph unicode="&#xde;" horiz-adv-x="1226" d="M180 0v1366h277v-279h157q78 0 137.5 -3t106.5 -11t84 -21.5t72 -33.5q84 -47 128 -129t44 -191q0 -106 -45 -192t-125 -131q-74 -41 -170 -59.5t-236 -18.5h-153v-297h-277zM457 377h125q80 0 132 13t87 44q94 76 94 262q0 162 -69.5 237t-223.5 75h-145v-631z" />
<glyph unicode="&#xdf;" horiz-adv-x="1200" d="M135 0v934q0 119 24.5 195.5t78.5 134.5q63 66 161.5 99.5t227.5 33.5q180 0 280.5 -66.5t100.5 -185.5q0 -70 -34 -121t-116 -102l-55 -37q-76 -47 -76 -113q0 -72 94 -121l135 -69q109 -55 155 -121t46 -164q0 -147 -90 -232t-248 -85q-147 0 -236 75.5t-98 210.5h201 q4 -111 37 -161t102 -50q61 0 97 40t36 108q0 59 -31.5 101t-103.5 81l-114 61q-90 47 -131 101.5t-41 126.5q0 59 28.5 104t96.5 96l49 37q61 47 83.5 91.5t22.5 121.5q0 96 -53 146.5t-156 50.5q-117 0 -169 -68.5t-52 -224.5v-1028h-252z" />
<glyph unicode="&#xe0;" horiz-adv-x="1048" d="M66 240q0 168 159 237q31 14 71 24.5t94 17.5t124 11.5t160 8.5v94q0 119 -34 167t-120 48q-80 0 -117.5 -46t-40.5 -149v-10h-249q4 117 94 193q98 82 315 82q244 0 342 -111q35 -41 49.5 -95.5t14.5 -148.5v-563h-242v188q-39 -111 -112.5 -162t-196.5 -51 q-147 0 -229 70t-82 195zM141 1405h267l229 -363h-80zM322 252q0 -182 143 -182q63 0 111.5 38.5t72.5 110.5q25 70 25 256q-96 0 -164 -12t-110 -38t-60 -69t-18 -104z" />
<glyph unicode="&#xe1;" horiz-adv-x="1048" d="M66 240q0 168 159 237q31 14 71 24.5t94 17.5t124 11.5t160 8.5v94q0 119 -34 167t-120 48q-80 0 -117.5 -46t-40.5 -149v-10h-249q4 117 94 193q98 82 315 82q244 0 342 -111q35 -41 49.5 -95.5t14.5 -148.5v-563h-242v188q-39 -111 -112.5 -162t-196.5 -51 q-147 0 -229 70t-82 195zM322 252q0 -182 143 -182q63 0 111.5 38.5t72.5 110.5q25 70 25 256q-96 0 -164 -12t-110 -38t-60 -69t-18 -104zM410 1042l227 363h268l-418 -363h-77z" />
<glyph unicode="&#xe2;" horiz-adv-x="1048" d="M66 240q0 168 159 237q31 14 71 24.5t94 17.5t124 11.5t160 8.5v94q0 119 -34 167t-120 48q-80 0 -117.5 -46t-40.5 -149v-10h-249q4 117 94 193q98 82 315 82q244 0 342 -111q35 -41 49.5 -95.5t14.5 -148.5v-563h-242v188q-39 -111 -112.5 -162t-196.5 -51 q-147 0 -229 70t-82 195zM176 1024l307 389h74l313 -389h-82l-266 178l-262 -178h-84zM322 252q0 -182 143 -182q63 0 111.5 38.5t72.5 110.5q25 70 25 256q-96 0 -164 -12t-110 -38t-60 -69t-18 -104z" />
<glyph unicode="&#xe3;" horiz-adv-x="1048" d="M66 240q0 168 159 237q31 14 71 24.5t94 17.5t124 11.5t160 8.5v94q0 119 -34 167t-120 48q-80 0 -117.5 -46t-40.5 -149v-10h-249q4 117 94 193q98 82 315 82q244 0 342 -111q35 -41 49.5 -95.5t14.5 -148.5v-563h-242v188q-39 -111 -112.5 -162t-196.5 -51 q-147 0 -229 70t-82 195zM135 1120q10 14 18.5 26.5t18.5 24.5q37 51 66.5 84t55 52.5t52.5 27.5t57 8q72 0 168 -59q96 -57 154 -57q27 0 56.5 24.5t72.5 77.5l61 -22q-10 -10 -17 -22.5t-17 -24.5q-74 -98 -121 -135.5t-101 -37.5q-37 0 -83 16.5t-95 45.5q-45 29 -85 43 t-68 14q-27 0 -48.5 -17.5t-62.5 -68.5q-6 -6 -18 -22zM322 252q0 -182 143 -182q63 0 111.5 38.5t72.5 110.5q25 70 25 256q-96 0 -164 -12t-110 -38t-60 -69t-18 -104z" />
<glyph unicode="&#xe4;" horiz-adv-x="1048" d="M66 240q0 168 159 237q31 14 71 24.5t94 17.5t124 11.5t160 8.5v94q0 119 -34 167t-120 48q-80 0 -117.5 -46t-40.5 -149v-10h-249q4 117 94 193q98 82 315 82q244 0 342 -111q35 -41 49.5 -95.5t14.5 -148.5v-563h-242v188q-39 -111 -112.5 -162t-196.5 -51 q-147 0 -229 70t-82 195zM170 1206q0 57 36 92t93 35q59 0 94 -34.5t35 -94.5q0 -57 -36 -93t-93 -36q-59 0 -94 36t-35 95zM322 252q0 -182 143 -182q63 0 111.5 38.5t72.5 110.5q25 70 25 256q-96 0 -164 -12t-110 -38t-60 -69t-18 -104zM614 1206q0 57 36 92t93 35 q59 0 94 -34.5t35 -94.5q0 -59 -35.5 -94t-95.5 -35q-57 0 -92 36t-35 95z" />
<glyph unicode="&#xe5;" horiz-adv-x="1048" d="M66 240q0 168 159 237q31 14 71 24.5t94 17.5t124 11.5t160 8.5v94q0 119 -34 167t-120 48q-80 0 -117.5 -46t-40.5 -149v-10h-249q4 117 94 193q98 82 315 82q244 0 342 -111q35 -41 49.5 -95.5t14.5 -148.5v-563h-242v188q-39 -111 -112.5 -162t-196.5 -51 q-147 0 -229 70t-82 195zM289 1251q0 106 63 169t174 63t173.5 -62.5t62.5 -173.5q0 -109 -63.5 -169t-178.5 -60q-106 0 -168.5 62.5t-62.5 170.5zM322 252q0 -182 143 -182q63 0 111.5 38.5t72.5 110.5q25 70 25 256q-96 0 -164 -12t-110 -38t-60 -69t-18 -104zM418 1249 q0 -172 108 -172q109 0 109 164q0 96 -26 139t-81 43q-111 0 -110 -174z" />
<glyph unicode="&#xe6;" horiz-adv-x="1673" d="M68 242q0 176 202 233q125 37 424 37q0 61 -2 101t-4 64.5t-6 41t-10 33.5q-41 96 -150 96q-86 0 -121.5 -47t-35.5 -158h-250q2 131 106.5 203t294.5 72q109 0 179.5 -28t131.5 -93q59 59 145.5 90t190.5 31q123 0 223.5 -49.5t149.5 -135.5q35 -61 50.5 -129.5 t19.5 -167.5h-656q2 -199 63.5 -291t190.5 -92q98 0 171 56.5t102 154.5h106q-74 -289 -426 -289q-59 0 -106 7.5t-88 25t-78 47t-78 72.5q-63 -82 -148.5 -117t-216.5 -35q-180 0 -277 69t-97 198zM326 231q0 -180 155 -180q111 0 162 86t51 277v35q-57 0 -97 -1.5 t-68.5 -4.5t-49 -9t-41.5 -14q-59 -27 -85.5 -71t-26.5 -118zM950 506h391q0 342 -190 342t-201 -342z" />
<glyph unicode="&#xe7;" horiz-adv-x="989" d="M74 446q0 109 32.5 196t93 147.5t147.5 93t196 32.5q180 0 287.5 -92t111.5 -245h-248q2 135 -37 199.5t-118 64.5q-195 0 -195 -396q0 -389 240 -389q96 0 161.5 61.5t75.5 164.5h107q-16 -150 -114.5 -226.5t-272.5 -76.5q-221 0 -344 122.5t-123 343.5zM274 -471 l234 430h82l-88 -430h-228z" />
<glyph unicode="&#xe8;" horiz-adv-x="1058" d="M74 451q0 219 124 343t341 124q129 0 230 -49.5t151 -135.5q37 -63 52 -130.5t19 -166.5h-655q0 -199 62.5 -292t191.5 -93q98 0 171 56.5t101 156.5h107q-37 -141 -142.5 -215t-275.5 -74q-223 0 -350 126t-127 350zM154 1405h266l229 -363h-80zM336 506h391 q0 170 -49 256t-141 86q-195 0 -201 -342z" />
<glyph unicode="&#xe9;" horiz-adv-x="1058" d="M74 451q0 219 124 343t341 124q129 0 230 -49.5t151 -135.5q37 -63 52 -130.5t19 -166.5h-655q0 -199 62.5 -292t191.5 -93q98 0 171 56.5t101 156.5h107q-37 -141 -142.5 -215t-275.5 -74q-223 0 -350 126t-127 350zM336 506h391q0 170 -49 256t-141 86 q-195 0 -201 -342zM422 1042l227 363h269l-418 -363h-78z" />
<glyph unicode="&#xea;" horiz-adv-x="1058" d="M74 451q0 219 124 343t341 124q129 0 230 -49.5t151 -135.5q37 -63 52 -130.5t19 -166.5h-655q0 -199 62.5 -292t191.5 -93q98 0 171 56.5t101 156.5h107q-37 -141 -142.5 -215t-275.5 -74q-223 0 -350 126t-127 350zM188 1024l308 389h73l314 -389h-82l-266 178 l-263 -178h-84zM336 506h391q0 170 -49 256t-141 86q-195 0 -201 -342z" />
<glyph unicode="&#xeb;" horiz-adv-x="1058" d="M74 451q0 219 124 343t341 124q129 0 230 -49.5t151 -135.5q37 -63 52 -130.5t19 -166.5h-655q0 -199 62.5 -292t191.5 -93q98 0 171 56.5t101 156.5h107q-37 -141 -142.5 -215t-275.5 -74q-223 0 -350 126t-127 350zM182 1206q0 57 36 92t93 35q59 0 94 -34.5t35 -94.5 q0 -57 -35.5 -93t-93.5 -36q-59 0 -94 36t-35 95zM336 506h391q0 170 -49 256t-141 86q-195 0 -201 -342zM627 1206q0 57 36 92t93 35q59 0 94 -34.5t35 -94.5q0 -59 -36 -94t-95 -35q-57 0 -92 36t-35 95z" />
<glyph unicode="&#xec;" horiz-adv-x="526" d="M-117 1405h267l229 -363h-80zM137 0v893h254v-893h-254z" />
<glyph unicode="&#xed;" horiz-adv-x="526" d="M129 0v893h254v-893h-254zM141 1042l228 363h268l-418 -363h-78z" />
<glyph unicode="&#xee;" horiz-adv-x="526" d="M-84 1024l307 389h74l313 -389h-82l-266 178l-262 -178h-84zM137 0v893h254v-893h-254z" />
<glyph unicode="&#xef;" horiz-adv-x="526" d="M-31 1200q0 55 34 89t89 34q57 0 91 -34t34 -91q0 -53 -35 -88t-88 -35q-57 0 -91 35t-34 90zM135 0v893h254v-893h-254zM313 1202q0 53 34 87t89 34q57 0 91 -34t34 -91q0 -53 -34.5 -88t-88.5 -35q-57 0 -91 35t-34 92z" />
<glyph unicode="&#xf0;" horiz-adv-x="1122" d="M74 442q0 129 38 219.5t119 153.5q137 109 312 109q45 0 86 -8.5t90 -24.5q-43 98 -101.5 175t-142.5 142l-250 -157l-35 55l222 139q-78 47 -142.5 76t-140.5 47l31 68q111 -23 194.5 -50.5t163.5 -68.5l236 149l37 -57l-203 -127q461 -319 461 -817q0 -266 -152 -387 q-63 -49 -152.5 -78t-187.5 -29q-225 0 -354 126t-129 345zM340 430q0 -385 217 -385q115 0 169 93t54 290q0 223 -51 322.5t-168 99.5t-169 -100.5t-52 -319.5z" />
<glyph unicode="&#xf1;" horiz-adv-x="1132" d="M137 0v893h236v-242q68 262 327 262q197 0 273 -133q23 -41 32 -86t9 -123v-571h-254v571q0 76 -5 115t-22 66q-16 31 -48 48t-69 17q-51 0 -97 -27.5t-70 -74.5q-31 -55 -44.5 -128t-13.5 -184v-403h-254zM215 1120q10 14 18.5 26.5t18.5 24.5q37 51 66.5 84t55 52.5 t52.5 27.5t57 8q72 0 168 -59q96 -57 154 -57q27 0 56.5 24.5t72.5 77.5l61 -22q-10 -10 -17 -22.5t-17 -24.5q-74 -98 -121 -135.5t-101 -37.5q-37 0 -83 16.5t-95 45.5q-45 29 -85 43t-68 14q-27 0 -48.5 -17.5t-62.5 -68.5q-6 -6 -18 -22z" />
<glyph unicode="&#xf2;" horiz-adv-x="1122" d="M74 446q0 225 130 350.5t363 125.5q229 0 355.5 -127t126.5 -357q0 -113 -40 -209t-110 -151q-61 -51 -150.5 -79t-187.5 -28q-121 0 -223 40t-162 112q-47 55 -74.5 142t-27.5 181zM180 1405h266l230 -363h-80zM340 428q0 -383 217 -383q117 0 170 97.5t53 316.5 q0 199 -54 294t-165 95q-117 0 -169 -100.5t-52 -319.5z" />
<glyph unicode="&#xf3;" horiz-adv-x="1122" d="M74 446q0 225 130 350.5t363 125.5q229 0 355.5 -127t126.5 -357q0 -113 -40 -209t-110 -151q-61 -51 -150.5 -79t-187.5 -28q-121 0 -223 40t-162 112q-47 55 -74.5 142t-27.5 181zM340 428q0 -383 217 -383q117 0 170 97.5t53 316.5q0 199 -54 294t-165 95 q-117 0 -169 -100.5t-52 -319.5zM446 1042l228 363h268l-418 -363h-78z" />
<glyph unicode="&#xf4;" horiz-adv-x="1122" d="M74 446q0 225 130 350.5t363 125.5q229 0 355.5 -127t126.5 -357q0 -113 -40 -209t-110 -151q-61 -51 -150.5 -79t-187.5 -28q-121 0 -223 40t-162 112q-47 55 -74.5 142t-27.5 181zM213 1024l307 389h74l313 -389h-82l-266 178l-262 -178h-84zM340 428q0 -383 217 -383 q117 0 170 97.5t53 316.5q0 199 -54 294t-165 95q-117 0 -169 -100.5t-52 -319.5z" />
<glyph unicode="&#xf5;" horiz-adv-x="1122" d="M74 446q0 225 130 350.5t363 125.5q229 0 355.5 -127t126.5 -357q0 -113 -40 -209t-110 -151q-61 -51 -150.5 -79t-187.5 -28q-121 0 -223 40t-162 112q-47 55 -74.5 142t-27.5 181zM172 1120q10 14 18.5 26.5t18.5 24.5q37 51 66.5 84t55 52.5t52.5 27.5t57 8 q72 0 168 -59q96 -57 154 -57q27 0 56.5 24.5t72.5 77.5l61 -22q-10 -10 -17 -22.5t-17 -24.5q-74 -98 -121 -135.5t-101 -37.5q-37 0 -83 16.5t-95 45.5q-45 29 -85 43t-68 14q-27 0 -48.5 -17.5t-62.5 -68.5q-6 -6 -18 -22zM340 428q0 -383 217 -383q117 0 170 97.5 t53 316.5q0 199 -54 294t-165 95q-117 0 -169 -100.5t-52 -319.5z" />
<glyph unicode="&#xf6;" horiz-adv-x="1122" d="M74 446q0 225 130 350.5t363 125.5q229 0 355.5 -127t126.5 -357q0 -113 -40 -209t-110 -151q-61 -51 -150.5 -79t-187.5 -28q-121 0 -223 40t-162 112q-47 55 -74.5 142t-27.5 181zM207 1206q0 57 36 92t93 35q59 0 94 -34.5t35 -94.5q0 -57 -36 -93t-93 -36 q-59 0 -94 36t-35 95zM340 428q0 -383 217 -383q117 0 170 97.5t53 316.5q0 199 -54 294t-165 95q-117 0 -169 -100.5t-52 -319.5zM651 1206q0 57 36 92t93 35q59 0 94 -34.5t35 -94.5q0 -59 -35.5 -94t-95.5 -35q-57 0 -92 36t-35 95z" />
<glyph unicode="&#xf7;" horiz-adv-x="1124" d="M20 489v113h1078v-113h-1078zM432 131q0 53 38 90t91 37q51 0 88 -37t37 -90t-37 -90t-90 -37t-90 37t-37 90zM432 948q0 53 38 90t91 37q51 0 88 -37t37 -90t-37 -90t-90 -37t-90 37t-37 90z" />
<glyph unicode="&#xf8;" horiz-adv-x="1122" d="M68 436q0 254 153 381q66 51 147 79t171 28q72 0 142.5 -14.5t125.5 -41.5l127 187l55 -43l-123 -183q94 -72 135 -161.5t41 -227.5q0 -106 -33.5 -193t-95 -148.5t-149.5 -94.5t-197 -33q-72 0 -139.5 13.5t-126.5 42.5l-127 -191l-55 43l125 184q-92 68 -134 158 t-42 215zM334 444q0 -31 1 -56.5t5 -50t10 -51t17 -59.5l344 512q-20 49 -64.5 79t-97.5 30q-215 0 -215 -404zM399 156q14 -47 60.5 -78t99.5 -31q111 0 163 97.5t52 301.5q0 33 -1 57.5t-4 48t-9 50.5t-17 64z" />
<glyph unicode="&#xf9;" horiz-adv-x="1130" d="M121 322v571h254v-571q0 -76 5 -115t21 -66q16 -31 48 -48t69 -17q51 0 97.5 27.5t70.5 74.5q31 55 44 129t13 185v401h254v-893h-235v242q-66 -262 -328 -262q-197 0 -272 133q-23 41 -32 86t-9 123zM184 1405h267l229 -363h-80z" />
<glyph unicode="&#xfa;" horiz-adv-x="1130" d="M121 322v571h254v-571q0 -76 5 -115t21 -66q16 -31 48 -48t69 -17q51 0 97.5 27.5t70.5 74.5q31 55 44 129t13 185v401h254v-893h-235v242q-66 -262 -328 -262q-197 0 -272 133q-23 41 -32 86t-9 123zM453 1042l227 363h268l-418 -363h-77z" />
<glyph unicode="&#xfb;" horiz-adv-x="1130" d="M121 322v571h254v-571q0 -76 5 -115t21 -66q16 -31 48 -48t69 -17q51 0 97.5 27.5t70.5 74.5q31 55 44 129t13 185v401h254v-893h-235v242q-66 -262 -328 -262q-197 0 -272 133q-23 41 -32 86t-9 123zM219 1024l307 389h74l313 -389h-82l-266 178l-262 -178h-84z" />
<glyph unicode="&#xfc;" horiz-adv-x="1130" d="M121 322v571h254v-571q0 -76 5 -115t21 -66q16 -31 48 -48t69 -17q51 0 97.5 27.5t70.5 74.5q31 55 44 129t13 185v401h254v-893h-235v242q-66 -262 -328 -262q-197 0 -272 133q-23 41 -32 86t-9 123zM213 1206q0 57 36 92t93 35q59 0 94 -34.5t35 -94.5q0 -57 -36 -93 t-93 -36q-59 0 -94 36t-35 95zM657 1206q0 57 36 92t93 35q59 0 94 -34.5t35 -94.5q0 -59 -35.5 -94t-95.5 -35q-57 0 -92 36t-35 95z" />
<glyph unicode="&#xfd;" horiz-adv-x="921" d="M-8 -375q82 0 138 11.5t98 41t76 81t71 135.5l28 73l-401 926h281l252 -627l210 627h146l-449 -1059q-47 -115 -93 -190.5t-98 -122.5t-114.5 -68.5t-144.5 -23.5v196zM352 1042l228 363h268l-418 -363h-78z" />
<glyph unicode="&#xfe;" d="M137 -553v1999h254v-735q78 205 303 204q186 0 289.5 -124.5t103.5 -346.5q0 -219 -103 -343t-290 -124q-219 0 -303 199v-729h-254zM391 444q0 -174 63.5 -276t174.5 -102q94 0 143 90t49 264q0 215 -45 311t-149 96q-109 0 -172.5 -103t-63.5 -280z" />
<glyph unicode="&#xff;" horiz-adv-x="921" d="M-8 -375q82 0 138 11.5t98 41t76 81t71 135.5l28 73l-401 926h281l252 -627l210 627h146l-449 -1059q-47 -115 -93 -190.5t-98 -122.5t-114.5 -68.5t-144.5 -23.5v196zM106 1206q0 57 36.5 92t93.5 35q59 0 94 -34.5t35 -94.5q0 -57 -36 -93t-93 -36q-59 0 -94.5 36 t-35.5 95zM551 1206q0 57 36 92t93 35q59 0 94 -34.5t35 -94.5q0 -59 -36 -94t-95 -35q-57 0 -92 36t-35 95z" />
<glyph unicode="&#x152;" horiz-adv-x="1980" d="M94 670q0 414 271 598q162 111 452 110q66 0 132.5 -2t137.5 -6q35 -2 45.5 -3t30.5 -1h727v-86h-598v-537h531v-84h-531v-573h629v-86h-758q-35 -2 -85 -5t-98 -5t-85 -3t-45 -1q-156 0 -263.5 21.5t-191.5 68.5q-145 84 -223 236.5t-78 357.5zM389 680 q0 -135 21.5 -238.5t66.5 -185.5q104 -186 385 -186q37 0 69 3t85 11v1202q-53 6 -84 8t-68 2q-242 0 -358.5 -151.5t-116.5 -464.5z" />
<glyph unicode="&#x153;" horiz-adv-x="1759" d="M74 446q0 225 130 350.5t365 125.5q55 0 99.5 -6.5t83.5 -20.5t75.5 -39t79.5 -61q143 123 340 123q123 0 223.5 -49.5t149.5 -135.5q35 -63 50.5 -130.5t19.5 -166.5h-656q2 -199 63.5 -292t190.5 -93q98 0 171 56.5t104 156.5h106q-16 -57 -34.5 -92t-49.5 -70 q-55 -61 -142 -94t-198 -33q-109 0 -184.5 29t-149.5 98q-43 -39 -81.5 -63.5t-78.5 -39.5t-84 -21.5t-102 -6.5q-233 0 -362 125t-129 350zM340 428q0 -383 217 -383q117 0 170 98.5t53 315.5q0 199 -54 294t-165 95q-117 0 -169 -100.5t-52 -319.5zM1034 506h393 q-6 342 -192 342q-195 0 -201 -342z" />
<glyph unicode="&#x178;" horiz-adv-x="1161" d="M-23 1366h320l373 -676l342 676h174l-471 -776v-590h-277v567zM260 1624q0 57 36 92t93 35q59 0 94 -36t35 -93t-36 -93t-93 -36q-59 0 -94 36t-35 95zM705 1624q0 57 35 92t94 35q57 0 93 -36t36 -93t-36 -93t-93 -36q-59 0 -94 36t-35 95z" />
<glyph unicode="&#x2c6;" horiz-adv-x="1024" d="M164 1024l307 389h74l313 -389h-82l-266 178l-262 -178h-84z" />
<glyph unicode="&#x2dc;" horiz-adv-x="1024" d="M123 1120q10 14 18.5 26.5t18.5 24.5q37 51 66.5 84t55 52.5t52 27.5t57.5 8q72 0 168 -59q96 -57 154 -57q27 0 56.5 24.5t72.5 77.5l61 -22q-10 -10 -17 -22.5t-18 -24.5q-74 -98 -121 -135.5t-100 -37.5q-37 0 -83 16.5t-95 45.5q-45 29 -85 43t-69 14 q-27 0 -48 -17.5t-62 -68.5q-6 -6 -19 -22z" />
<glyph unicode="&#x2000;" horiz-adv-x="948" />
<glyph unicode="&#x2001;" horiz-adv-x="1896" />
<glyph unicode="&#x2002;" horiz-adv-x="948" />
<glyph unicode="&#x2003;" horiz-adv-x="1896" />
<glyph unicode="&#x2004;" horiz-adv-x="632" />
<glyph unicode="&#x2005;" horiz-adv-x="474" />
<glyph unicode="&#x2006;" horiz-adv-x="316" />
<glyph unicode="&#x2007;" horiz-adv-x="316" />
<glyph unicode="&#x2008;" horiz-adv-x="237" />
<glyph unicode="&#x2009;" horiz-adv-x="379" />
<glyph unicode="&#x200a;" horiz-adv-x="105" />
<glyph unicode="&#x2010;" horiz-adv-x="643" d="M82 403v162h481v-162h-481z" />
<glyph unicode="&#x2011;" horiz-adv-x="643" d="M82 403v162h481v-162h-481z" />
<glyph unicode="&#x2012;" horiz-adv-x="643" d="M82 403v162h481v-162h-481z" />
<glyph unicode="&#x2013;" horiz-adv-x="1204" d="M82 403v162h1040v-162h-1040z" />
<glyph unicode="&#x2014;" horiz-adv-x="1593" d="M82 403v162h1431v-162h-1431z" />
<glyph unicode="&#x2018;" horiz-adv-x="544" d="M63 920l304 544h98l-111 -544h-291z" />
<glyph unicode="&#x2019;" horiz-adv-x="544" d="M80 899l110 547h291l-303 -547h-98z" />
<glyph unicode="&#x201a;" horiz-adv-x="526" d="M61 -289l111 547h291l-303 -547h-99z" />
<glyph unicode="&#x201c;" horiz-adv-x="909" d="M63 938l291 526h97l-107 -526h-281zM442 938l291 526h96l-106 -526h-281z" />
<glyph unicode="&#x201d;" horiz-adv-x="909" d="M80 920l108 528h279l-291 -528h-96zM459 920l108 528h279l-291 -528h-96z" />
<glyph unicode="&#x201e;" horiz-adv-x="890" d="M61 -270l109 528h279l-291 -528h-97zM440 -270l109 528h278l-290 -528h-97z" />
<glyph unicode="&#x2022;" horiz-adv-x="1366" d="M401 696q0 57 22.5 108.5t61.5 90.5t92.5 60.5t112.5 21.5q57 0 107.5 -22.5t88.5 -61.5t60.5 -90t22.5 -109q0 -59 -22.5 -111.5t-60.5 -90t-90.5 -60t-109.5 -22.5q-59 0 -111.5 22.5t-90.5 61t-60.5 91t-22.5 111.5z" />
<glyph unicode="&#x2026;" horiz-adv-x="1556" d="M96 137q0 72 44 115t116 43t115 -45t43 -117q0 -68 -44 -112t-114 -44q-72 0 -116 44.5t-44 115.5zM614 137q0 72 44 115t116 43t115 -45t43 -117q0 -68 -44 -112t-114 -44q-72 0 -116 44.5t-44 115.5zM1133 137q0 72 43.5 115t115.5 43t115 -45t43 -117q0 -68 -44 -112 t-114 -44q-72 0 -115.5 44.5t-43.5 115.5z" />
<glyph unicode="&#x202f;" horiz-adv-x="379" />
<glyph unicode="&#x2039;" horiz-adv-x="559" d="M78 469l307 365h104l-170 -365l170 -363h-104z" />
<glyph unicode="&#x203a;" horiz-adv-x="559" d="M70 106l172 365l-172 363h104l307 -363l-307 -365h-104z" />
<glyph unicode="&#x205f;" horiz-adv-x="474" />
<glyph unicode="&#x2122;" horiz-adv-x="1933" d="M4 1300v66h774v-66h-293v-753h-188v753h-293zM883 547v819h227l244 -590l245 590h220v-819h-185v715l-295 -715h-84l-297 719v-719h-75z" />
<glyph unicode="&#xe000;" horiz-adv-x="890" d="M0 0v891h891v-891h-891z" />
</font>
</defs>
</svg>
